<?xml version="1.0" standalone="no"?>
<!DOCTYPE svg PUBLIC "-//W3C//DTD SVG 20010904//EN"
 "http://www.w3.org/TR/2001/REC-SVG-20010904/DTD/svg10.dtd">
<svg version="1.0" xmlns="http://www.w3.org/2000/svg"
 width="1024.000000pt" height="1024.000000pt" viewBox="0 0 1024.000000 1024.000000"
 preserveAspectRatio="xMidYMid meet">
<metadata>
Created by potrace 1.11, written by Peter Selinger 2001-2013
</metadata>
<g transform="translate(0.000000,1024.000000) scale(0.100000,-0.100000)"
fill="#000000" stroke="none">
<path d="M5050 8891 c-63 -20 -143 -67 -585 -338 -71 -44 -166 -102 -210 -128
-44 -27 -125 -77 -180 -111 -238 -147 -510 -313 -635 -389 -74 -45 -196 -119
-270 -165 -74 -46 -202 -124 -285 -175 -82 -50 -190 -116 -240 -147 -49 -30
-184 -112 -300 -183 -115 -70 -255 -155 -310 -190 -55 -34 -183 -113 -285
-175 -102 -62 -223 -136 -270 -165 -348 -214 -479 -294 -507 -309 -31 -16 -38
-15 -135 5 -82 16 -130 20 -238 17 l-135 -3 -83 -44 c-45 -24 -94 -57 -108
-74 -38 -45 -90 -155 -103 -217 -16 -82 -51 -295 -61 -375 -5 -38 -14 -94 -20
-123 -7 -31 -10 -109 -8 -190 4 -135 4 -138 40 -208 44 -85 76 -125 125 -155
l35 -22 -3 -661 -4 -661 44 -83 c25 -47 60 -96 81 -115 21 -18 136 -79 257
-136 120 -58 476 -230 791 -383 316 -153 575 -278 577 -278 2 0 246 -118 542
-261 296 -144 570 -276 608 -294 39 -17 293 -140 565 -272 272 -132 630 -305
795 -384 l300 -144 160 0 160 0 72 37 c39 21 127 72 195 114 170 106 322 200
393 244 72 44 243 150 380 235 55 34 141 87 190 117 50 31 173 107 275 171
102 63 214 132 250 154 36 22 121 75 190 118 69 43 242 150 385 239 143 88
343 211 445 274 102 63 223 138 270 167 47 29 123 76 170 105 47 29 123 77
170 105 47 29 123 76 170 105 47 29 130 81 185 115 875 541 1114 691 1137 712
15 15 47 63 70 107 l43 81 0 915 0 915 -44 83 c-25 48 -60 97 -82 116 -23 19
-484 252 -1136 574 -604 297 -1640 810 -2303 1139 l-1205 597 -150 3 c-82 1
-161 -1 -175 -6z"/>
</g>
</svg>
